<svg xmlns="http://www.w3.org/2000/svg" width="204.766" height="75.646" viewBox="0 0 204.766 75.646"><defs><style>.a{fill:#fff;}.b{fill:none;}</style></defs><g transform="translate(-171.665 -3952)"><ellipse class="a" cx="3.933" cy="6.76" rx="3.933" ry="6.76" transform="translate(306.192 3984.576) rotate(-64.85)"/><path class="a" d="M315.078,3979.368a9.589,9.589,0,0,1,3.037.877,7.338,7.338,0,0,1,2.6,1.935,4.374,4.374,0,0,1,.47.7,3.587,3.587,0,0,1,.343.784,5.281,5.281,0,0,1,.247,1.637,3.268,3.268,0,0,1-.4,1.623,2.08,2.08,0,0,1-1.262.992,2.252,2.252,0,0,0,.88-1.172,3.256,3.256,0,0,0,.115-1.413c-.02-.238-.085-.476-.127-.714a5.267,5.267,0,0,0-.221-.692c-.048-.106-.088-.215-.131-.322a2.486,2.486,0,0,0-.17-.306,3.63,3.63,0,0,0-.408-.579,6.681,6.681,0,0,0-.48-.538c-.184-.161-.362-.328-.555-.483a12.265,12.265,0,0,0-1.221-.869A27.569,27.569,0,0,0,315.078,3979.368Z"/><ellipse class="a" cx="3.933" cy="7.152" rx="3.933" ry="7.152" transform="translate(320.14 3983.081) rotate(-58.343)"/><path class="a" d="M329.07,3978.631a11.33,11.33,0,0,1,3.045,1.127,9.134,9.134,0,0,1,2.622,2.024,5.41,5.41,0,0,1,.9,1.471c.055.136.092.281.136.42l.091.411a5.008,5.008,0,0,1,.113.84,3.537,3.537,0,0,1-.267,1.689,2,2,0,0,1-1.194,1.137,2.132,2.132,0,0,0,.786-1.277,3.61,3.61,0,0,0,0-1.475c-.014-.123-.058-.245-.082-.368a2.826,2.826,0,0,0-.094-.366l-.11-.364c-.046-.112-.082-.225-.136-.333a4.848,4.848,0,0,0-.8-1.229,12.25,12.25,0,0,0-2.316-2.015C330.909,3979.725,330,3979.174,329.07,3978.631Z"/><path class="a" d="M353.6,3957.71l-1.172,2.31,2.889,4.738-3.388-4.395-2.184,1.086,1.574-1.943-4-6.384,4.52,6.01Z"/><path class="a" d="M179.845,4027.615q-5.295.279-7.129-1.919a6.108,6.108,0,0,1-1.008-4.5,16.3,16.3,0,0,1,.5-2.729l2.262-8.635q2.487-9.5,12.852-10.045,4.294-.227,6.355,1.5a5.4,5.4,0,0,1,1.783,4.922,11.39,11.39,0,0,1-.684,2.979,12.091,12.091,0,0,1-1.022,2.22l-.472.765-6.553.346a6.75,6.75,0,0,0,1.572-4.081,2.854,2.854,0,0,0-.514-2.138,2.3,2.3,0,0,0-2-.69q-3.739.2-4.8,4.4l-1.95,7.58a10.641,10.641,0,0,0-.35,1.907q-.215,2.455,2.711,2.3,3.516-.186,4.566-4.2l6.664-.353-.279,1.089Q190.1,4027.072,179.845,4027.615Z"/><path class="a" d="M207.359,4025.642l.731-5.851-6.182.327-2.323,5.935-7.07.374,11.845-27.281,12.217-.646-2.184,26.77Zm.248-20.189-3.747,9.6,4.85-.256,1.229-9.469Z"/><path class="a" d="M235.68,3997.491q4.22-.223,5.835,1.542a4.421,4.421,0,0,1,1.022,3.5,9.249,9.249,0,0,1-.284,1.571l-.771,2.928a10.932,10.932,0,0,1-1.877,3.987,8,8,0,0,1-2.609,2.247l2.423,10.683-7.478.4L229.7,4014.5l-2.295.122-2.389,10.085-7.108.375,7.033-27.026Zm-2.838,5.924-2.777.147-1.525,6.522,2.591-.137a3.714,3.714,0,0,0,3.966-3.652Q235.36,4003.281,232.842,4003.415Z"/><path class="a" d="M260.78,4022.818l-18.585.983,7.033-27.027,18.585-.982-1.542,5.856-11.921.631-1.288,5.065,9.847-.52-1.542,5.857-9.847.521-1.12,4.39,11.921-.63Z"/><path class="a" d="M291.543,3994.538l-2.395,20.3.852-.045,8.206-20.609,7.256-.384-11.475,27.261-11.107.587,2.492-17.2-6.453,17.408-11.106.587,2.591-26.792,7.256-.383-2.432,20.3.851-.045,8.245-20.612Z"/><path class="a" d="M314.57,4019.975l.731-5.851-6.183.327-2.322,5.935-7.071.374,11.846-27.281,12.217-.646L321.6,4019.6Zm.247-20.189-3.747,9.6,4.85-.256,1.23-9.469Z"/><path class="a" d="M332.6,4011.433q-.223,2.566,3.46,2.372t3.885-2.5a1.96,1.96,0,0,0-1.084-1.942,10.614,10.614,0,0,0-2.941-1.141q-1.75-.424-3.486-1.018a6.149,6.149,0,0,1-2.866-2,4.844,4.844,0,0,1-.94-3.6q.813-9.335,12.77-9.967,4.368-.231,6.465,1.306a4.656,4.656,0,0,1,1.839,4.475,8.112,8.112,0,0,1-.457,2.079,5.511,5.511,0,0,1-.7,1.425l-.335.462-6.553.346a3.459,3.459,0,0,0,1-2.2q.211-2.418-2.936-2.252-3.961.21-4.182,2.739a1.913,1.913,0,0,0,1.084,1.942,9.587,9.587,0,0,0,2.953,1.01,33.52,33.52,0,0,1,3.517.869,5.807,5.807,0,0,1,2.89,1.939,5.058,5.058,0,0,1,.926,3.745,9.833,9.833,0,0,1-3.424,7.16q-3.014,2.436-8.862,2.745t-7.815-1.66a5.1,5.1,0,0,1-1.216-4.23,13.589,13.589,0,0,1,.419-2.28l.163-.6,6.664-.352-.113.451A3.657,3.657,0,0,0,332.6,4011.433Z"/><path class="a" d="M376.431,3990.051l-7,27.024-6.7.354,2.546-9.76-7.22.382-2.508,9.758-6.7.354,7.033-27.026,6.664-.352-2.984,11.411,7.219-.381,2.984-11.412Z"/><circle class="a" cx="1.31" cy="1.31" r="1.31" transform="translate(339.192 3961.234)"/><circle class="a" cx="2.421" cy="2.421" r="2.421" transform="translate(195.867 3969.042)"/><circle class="a" cx="4.098" cy="4.098" r="4.098" transform="translate(189.37 3971.463)"/><circle class="a" cx="1.823" cy="1.823" r="1.823" transform="translate(185.027 3985.41)"/><circle class="a" cx="1.166" cy="1.166" r="1.166" transform="translate(187.308 3984.714)"/><circle class="a" cx="1.676" cy="1.676" r="1.676" transform="translate(194.936 3971.882)"/><circle class="a" cx="1.676" cy="1.676" r="1.676" transform="translate(194.936 3973.885)"/><circle class="a" cx="1.43" cy="1.43" r="1.43" transform="translate(190.361 3957.697)"/><circle class="a" cx="1.676" cy="1.676" r="1.676" transform="translate(191.792 3976.669)"/><circle class="a" cx="1.103" cy="1.103" r="1.103" transform="translate(320.114 3960.132)"/><circle class="a" cx="1.045" cy="1.045" r="1.045" transform="translate(229.604 3952)"/><circle class="a" cx="1.045" cy="1.045" r="1.045" transform="translate(218.232 3954.199)"/><circle class="a" cx="0.938" cy="0.938" r="0.938" transform="translate(351.025 3964.614)"/><path class="a" d="M345.353,3969.7a86.2,86.2,0,0,1,13.639,2.567,77.619,77.619,0,0,0-13.01-3.133A2.872,2.872,0,0,1,345.353,3969.7Z"/><path class="a" d="M346.634,3967.316a2.862,2.862,0,0,0-5.6-.851,2.6,2.6,0,0,0-1.519-.488,2.672,2.672,0,0,0-.509.05,4.771,4.771,0,0,0-4.024-3.446,4.056,4.056,0,0,0,.065-.7,6.333,6.333,0,0,0-9.368,3.079c-.041,0-.081-.006-.122-.006a2.858,2.858,0,0,0-2.808,2.336,164.733,164.733,0,0,1,23.228,1.846A2.851,2.851,0,0,0,346.634,3967.316Z"/><path class="a" d="M321.608,3967.343a4.01,4.01,0,0,0-3.838,1.336,197.032,197.032,0,0,1,27.583,1.021,2.872,2.872,0,0,0,.629-.566,164.733,164.733,0,0,0-23.228-1.846,3.027,3.027,0,0,0-.044.333A5.115,5.115,0,0,0,321.608,3967.343Z"/><path class="b" d="M218.749,3962.848l.046-.016-.018-.03C218.768,3962.818,218.758,3962.832,218.749,3962.848Z"/><path class="a" d="M218.777,3962.8l.018.03a33.385,33.385,0,0,1,7.67-1.838c0-.052.008-.1.008-.154a4.1,4.1,0,0,0-7.7-1.961,4.1,4.1,0,0,1,0,3.923Z"/><path class="a" d="M201.239,3969.46a4.093,4.093,0,0,0-3.326,6.485c1.43-1.279,3.63-3.143,6.364-5.13A4.083,4.083,0,0,0,201.239,3969.46Z"/><path class="a" d="M213.262,3965.508a3.262,3.262,0,0,1,0-3.123,3.261,3.261,0,1,0-3.679,4.716,37.515,37.515,0,0,1,3.657-1.557C213.247,3965.531,213.255,3965.52,213.262,3965.508Z"/><path class="a" d="M218.777,3962.8a4.1,4.1,0,0,0,0-3.923,4.1,4.1,0,0,0,0,3.923Z"/><path class="a" d="M218.749,3962.848a46.94,46.94,0,0,0-4.595,1.956,4.074,4.074,0,0,0,4.595-1.956Z"/><path class="a" d="M185.981,3992.827a46.4,46.4,0,0,1,3.314-7.562,46.24,46.24,0,0,1,10.487-12.826,49.293,49.293,0,0,1,6.762-4.884q1.786-1.078,3.643-2.035c1.237-.635,2.506-1.206,3.784-1.748a61.668,61.668,0,0,1,7.862-2.724,65.676,65.676,0,0,1,8.127-1.71,55.794,55.794,0,0,1,8.28-.643h-.031l5.273-.223q2.639-.1,5.278-.165-2.617.346-5.239.654l-5.244.6-.031,0a74.223,74.223,0,0,0-15.977,3,67.069,67.069,0,0,0-14.862,6.433c-1.165.684-2.294,1.427-3.4,2.2s-2.2,1.572-3.243,2.426-2.059,1.748-3.043,2.674-1.931,1.895-2.832,2.9-1.77,2.052-2.6,3.126-1.6,2.2-2.35,3.332A61.286,61.286,0,0,0,185.981,3992.827Z"/><path class="a" d="M202.907,3958.694a6.278,6.278,0,1,0,6.278,6.279A6.279,6.279,0,0,0,202.907,3958.694Zm-5.342,8.6s-2.125-7.011,5.1-8.171A9.134,9.134,0,0,0,197.565,3967.3Z"/><path class="a" d="M216.563,3962.114a2.91,2.91,0,1,0-2.75,3.062A2.911,2.911,0,0,0,216.563,3962.114Zm-4.115-2.258s3.192-1.158,3.908,2.16A4.231,4.231,0,0,0,212.448,3959.856Z"/><path class="b" d="M312.784,3967.747c-4.668-2.764-20.189-6.563-26.936-8.133a42.974,42.974,0,0,0-6.91-1.026,148.862,148.862,0,0,0-34.266,1.885c2.146.4,17.706,12.323,17.706,12.323C285.136,3967.209,312.784,3967.747,312.784,3967.747Z"/><path class="b" d="M211.985,3970.374s-8.775,4.394-12.673,10.374l19.746-1.676S216.044,3972.582,211.985,3970.374Z"/><path class="b" d="M222.524,3978.778l31.8-4.106c-15.153-22.272-40.182-5.526-40.182-5.526C216.859,3970.745,222.524,3978.778,222.524,3978.778Z"/><path class="b" d="M367,3976.506c-.475.28.269,2.419,1.66,4.779s2.9,4.046,3.378,3.766-.268-2.42-1.66-4.779S367.474,3976.226,367,3976.506Z"/><path class="b" d="M365.412,3976.766a3.093,3.093,0,0,0-2.365-1.8l-9.556-1.435-12.814,2.069a1.374,1.374,0,0,0-.922,2.123l5.143,7.663a4.231,4.231,0,0,0,3.679,1.868l18.689-.746a1.663,1.663,0,0,0,1.452-2.34Z"/><path class="b" d="M200.553,3985.5l6.346,8.094,53.2-2.475-52.328.876Z"/><path class="b" d="M222.524,3978.778l31.8-4.106c-15.153-22.272-40.182-5.526-40.182-5.526C216.859,3970.745,222.524,3978.778,222.524,3978.778Z"/><path class="b" d="M211.985,3970.374s-8.775,4.394-12.673,10.374l19.746-1.676S216.044,3972.582,211.985,3970.374Z"/><path class="b" d="M312.784,3967.747c-4.668-2.764-20.189-6.563-26.936-8.133a42.974,42.974,0,0,0-6.91-1.026,148.862,148.862,0,0,0-34.266,1.885c2.146.4,17.706,12.323,17.706,12.323C285.136,3967.209,312.784,3967.747,312.784,3967.747Z"/><path class="b" d="M367,3976.506c-.475.28.269,2.419,1.66,4.779s2.9,4.046,3.378,3.766-.268-2.42-1.66-4.779S367.474,3976.226,367,3976.506Z"/><path class="b" d="M365.412,3976.766a3.093,3.093,0,0,0-2.365-1.8l-9.556-1.435-12.814,2.069a1.374,1.374,0,0,0-.922,2.123l5.143,7.663a4.231,4.231,0,0,0,3.679,1.868l18.689-.746a1.663,1.663,0,0,0,1.452-2.34Z"/><path class="b" d="M214.142,3969.146c2.717,1.6,8.382,9.632,8.382,9.632l31.8-4.106C239.171,3952.4,214.142,3969.146,214.142,3969.146Z"/><path class="b" d="M211.985,3970.374s-8.775,4.394-12.673,10.374l19.746-1.676S216.044,3972.582,211.985,3970.374Z"/><path class="b" d="M312.784,3967.747c-4.668-2.764-20.189-6.563-26.936-8.133a42.974,42.974,0,0,0-6.91-1.026,148.862,148.862,0,0,0-34.266,1.885c2.146.4,17.706,12.323,17.706,12.323C285.136,3967.209,312.784,3967.747,312.784,3967.747Z"/><path class="b" d="M330.3,3977.631c.712.369,1.412.763,2.093,1.178A8.911,8.911,0,0,0,330.3,3977.631Z"/><path class="b" d="M367,3976.506c-.475.28.269,2.419,1.66,4.779s2.9,4.046,3.378,3.766-.268-2.42-1.66-4.779S367.474,3976.226,367,3976.506Z"/><path class="b" d="M365.412,3976.766a3.093,3.093,0,0,0-2.365-1.8l-9.556-1.435-12.814,2.069a1.374,1.374,0,0,0-.922,2.123l5.143,7.663a4.231,4.231,0,0,0,3.679,1.868l18.689-.746a1.663,1.663,0,0,0,1.452-2.34Z"/><path class="b" d="M365.412,3976.766a3.093,3.093,0,0,0-2.365-1.8l-9.556-1.435-12.814,2.069a1.374,1.374,0,0,0-.922,2.123l5.143,7.663a4.231,4.231,0,0,0,3.679,1.868l18.689-.746a1.663,1.663,0,0,0,1.452-2.34Z"/><path class="b" d="M312.784,3967.747c-4.668-2.764-20.189-6.563-26.936-8.133a42.974,42.974,0,0,0-6.91-1.026,148.862,148.862,0,0,0-34.266,1.885c2.146.4,17.706,12.323,17.706,12.323C285.136,3967.209,312.784,3967.747,312.784,3967.747Z"/><path class="b" d="M211.985,3970.374s-8.775,4.394-12.673,10.374l19.746-1.676S216.044,3972.582,211.985,3970.374Z"/><path class="b" d="M214.142,3969.146c2.717,1.6,8.382,9.632,8.382,9.632l31.8-4.106C239.171,3952.4,214.142,3969.146,214.142,3969.146Z"/><path class="a" d="M367.586,3976.2c-.483.265.2,2.426,1.514,4.827s2.779,4.132,3.262,3.867-.2-2.427-1.514-4.828S368.069,3975.935,367.586,3976.2Z"/><path class="a" d="M362.591,3973.7c-9.631-2.79-20.646-.469-24.885.641a1.376,1.376,0,0,0-.819,2.063l6.458,10.312c-8.791-9.579-18.387-12.05-18.387-12.05-11.539-3.245-50.879-2.254-50.879-2.254a403.72,403.72,0,0,1,43.691-3.73,4.01,4.01,0,0,1,3.838-1.336,5.115,5.115,0,0,1,1.1.278,3.027,3.027,0,0,1,.044-.333c-3.452-.043-5.6.028-5.6.028a116.837,116.837,0,0,0-26.119-8.188c-101.661-12.3-104.6,33.445-104.6,33.445l9.123-3.03c.467-1.684-1.882-.486,2.5-6.27l29.073-1.753s37.48-4.906,52.482-5.959,35.006-2.6,45.317-.021a24.924,24.924,0,0,1,5.378,2.091,8.911,8.911,0,0,1,2.093,1.178,54.705,54.705,0,0,1,11.772,10.106l24.749-1.416a1.116,1.116,0,0,0,1.042-1.294C369.2,3981.766,366.165,3974.365,362.591,3973.7Zm-163.279,7.051c3.9-5.98,12.673-10.374,12.673-10.374,4.059,2.208,7.073,8.7,7.073,8.7Zm23.212-1.97s-5.665-8.033-8.382-9.632c0,0,25.029-16.746,40.182,5.526Zm22.148-18.305a148.862,148.862,0,0,1,34.266-1.885,42.974,42.974,0,0,1,6.91,1.026c6.747,1.57,22.268,5.369,26.936,8.133,0,0-27.648-.538-50.406,5.049C262.378,3972.8,246.818,3960.877,244.672,3960.473Zm122.594,26.037-18.689.746a4.231,4.231,0,0,1-3.679-1.868l-5.143-7.663a1.374,1.374,0,0,1,.922-2.123l11.239-1.815a10.221,10.221,0,0,1,3.153-.017l7.978,1.2a3.093,3.093,0,0,1,2.365,1.8l3.306,7.4A1.663,1.663,0,0,1,367.266,3986.51Zm1.393-5.225"/><path class="a" d="M231.8,3988.566a96.9,96.9,0,0,0-14.883-1.358,75.082,75.082,0,0,0-14.7,1.16,56.41,56.41,0,0,0-7.129,1.751,51.853,51.853,0,0,0-6.849,2.654c-1.131.486-2.19,1.109-3.294,1.662l-1.594.94c-.265.158-.539.3-.8.472l-.773.513c-.517.34-1.047.668-1.558,1.022s-1,.743-1.506,1.1c-.252.185-.514.36-.759.554l-.726.592c-.494.388-.981.785-1.484,1.17.4-.489.808-.966,1.214-1.452l.623-.718c.211-.236.44-.454.659-.682.442-.455.9-.9,1.35-1.344.466-.432.953-.839,1.431-1.262l.727-.622c.246-.2.506-.386.759-.581l1.539-1.144,1.61-1.043c.271-.17.535-.354.813-.513l.839-.469a42.155,42.155,0,0,1,7.006-3.172c.607-.207,1.211-.43,1.828-.608l1.851-.531c.62-.168,1.249-.295,1.873-.444s1.254-.27,1.885-.384a56.51,56.51,0,0,1,15.271-.642,60.046,60.046,0,0,1,7.525,1.164A44.868,44.868,0,0,1,231.8,3988.566Z"/><path class="a" d="M188.561,3990.122l.019-.243.02-.183.047-.34q.051-.328.114-.641c.084-.417.182-.821.29-1.219a21.787,21.787,0,0,1,.783-2.307,26.511,26.511,0,0,1,2.177-4.231,33.389,33.389,0,0,1,6.054-7.03,52.614,52.614,0,0,1,15.476-9.182,93.353,93.353,0,0,1,17.034-4.811c2.886-.554,5.792-.977,8.682-1.361s5.8-.706,8.705-.98a169.218,169.218,0,0,1,34.954.235,113.092,113.092,0,0,1,17.152,3.312,76.654,76.654,0,0,1,8.269,2.8,40.121,40.121,0,0,1,7.718,4.03,39.99,39.99,0,0,0-7.82-3.767,76.316,76.316,0,0,0-8.31-2.517,112.237,112.237,0,0,0-17.124-2.735,167.587,167.587,0,0,0-34.6.884c-2.865.364-5.724.77-8.571,1.246s-5.679.99-8.476,1.632a90.287,90.287,0,0,0-16.274,5.231,48.888,48.888,0,0,0-14.042,9,29.153,29.153,0,0,0-5.061,6.31,22.022,22.022,0,0,0-1.677,3.567,17.4,17.4,0,0,0-.55,1.838c-.071.3-.133.609-.181.906-.024.148-.044.293-.06.433l-.02.2-.006.088c0,.017,0,.07,0,.029Z"/><path class="a" d="M265.4,3958.48s20.537,0,36.148,5.324l.011-1.317S274.145,3954.428,265.4,3958.48Z"/></g></svg>