<svg xmlns="http://www.w3.org/2000/svg" width="137.023" height="124.187" viewBox="0 0 137.023 124.187"><defs><style>.a{fill:#303030;}</style></defs><g transform="translate(-894.375 -826.633)"><path class="a" d="M1031.4,842.9c0-9.122-7.406-16.268-16.861-16.268H911.414c-9.4,0-17.039,7.3-17.039,16.268V949.379a1.439,1.439,0,0,0,.808,1.3,1.483,1.483,0,0,0,1.522-.154l28.331-21.86h89.5c9.455,0,16.861-7.036,16.861-16.016Zm-2.891,69.747c0,7.482-6.006,13.125-13.97,13.125H924.543a1.453,1.453,0,0,0-.883.3l-26.394,20.365V842.9c0-7.5,6.215-13.378,14.148-13.378h103.123c7.834,0,13.97,5.876,13.97,13.378Z"/><path class="a" d="M934.262,890.575V865.262h-2.73v11.707H915.411V865.262H912.64v25.313h2.771V879.342h16.121v11.233Z"/><path class="a" d="M961.627,867.834v-2.613H943.3v25.313h18.328v-2.692h-15.6v-8.738h15.041v-2.414H946.031v-8.857Z"/><path class="a" d="M970.589,865.221v25.313h17.059v-2.375H973.361V865.221Z"/><path class="a" d="M1013.967,879.691a8.655,8.655,0,0,0,2.219-5.91c0-4.274-3.078-8.6-8.961-8.6-1.487,0-7.363.019-10.955.031l-.908,0v25.32h2.771v-8.177h9.092A8.88,8.88,0,0,0,1013.967,879.691Zm-15.834-11.977h9.092a6.008,6.008,0,0,1,6.248,6.166,6.237,6.237,0,0,1-1.568,4.206,6.124,6.124,0,0,1-4.68,1.939h-9.092Z"/></g></svg>