<svg xmlns="http://www.w3.org/2000/svg" width="119.924" height="44.303" viewBox="0 0 119.924 44.303"><defs><style>.a{fill:#fff;}.b{fill:#0091d3;}.c{fill:none;}</style></defs><g transform="translate(-126.529 -75.023)"><ellipse class="a" cx="2.304" cy="3.959" rx="2.304" ry="3.959" transform="translate(205.317 94.101) rotate(-64.85)"/><path class="a" d="M210.521,91.051a5.627,5.627,0,0,1,1.779.514,4.3,4.3,0,0,1,1.525,1.133,2.571,2.571,0,0,1,.275.412,2.116,2.116,0,0,1,.2.459,3.111,3.111,0,0,1,.145.959,1.922,1.922,0,0,1-.237.95,1.216,1.216,0,0,1-.738.581,1.319,1.319,0,0,0,.515-.686,1.913,1.913,0,0,0,.067-.828c-.012-.139-.049-.278-.074-.418a3.251,3.251,0,0,0-.129-.4c-.029-.062-.052-.126-.078-.189a1.426,1.426,0,0,0-.1-.179,2.122,2.122,0,0,0-.239-.339,3.959,3.959,0,0,0-.281-.315c-.108-.095-.212-.192-.325-.283a6.978,6.978,0,0,0-.715-.509A16.3,16.3,0,0,0,210.521,91.051Z"/><ellipse class="a" cx="2.304" cy="4.188" rx="2.304" ry="4.188" transform="translate(213.485 93.226) rotate(-58.343)"/><path class="a" d="M218.715,90.62a6.613,6.613,0,0,1,1.784.66,5.353,5.353,0,0,1,1.536,1.185,3.192,3.192,0,0,1,.529.862c.032.079.054.164.079.246l.053.24a2.883,2.883,0,0,1,.067.492,2.085,2.085,0,0,1-.157.99,1.174,1.174,0,0,1-.7.665,1.25,1.25,0,0,0,.46-.747,2.113,2.113,0,0,0,0-.864c-.008-.072-.034-.144-.048-.216a1.694,1.694,0,0,0-.055-.215l-.065-.213c-.027-.065-.048-.131-.079-.195a2.871,2.871,0,0,0-.466-.72,7.229,7.229,0,0,0-1.357-1.18C219.792,91.26,219.262,90.938,218.715,90.62Z"/><path class="a" d="M233.081,78.367l-.687,1.353,1.692,2.775L232.1,79.921l-1.279.636.922-1.138L229.4,75.68l2.647,3.52Z"/><path class="a" d="M131.32,119.307q-3.1.165-4.176-1.123a3.585,3.585,0,0,1-.59-2.636,9.539,9.539,0,0,1,.29-1.6l1.325-5.057q1.456-5.562,7.527-5.883a5.27,5.27,0,0,1,3.722.877,3.16,3.16,0,0,1,1.044,2.882,6.681,6.681,0,0,1-.4,1.745,7.1,7.1,0,0,1-.6,1.3l-.277.448-3.837.2a3.958,3.958,0,0,0,.92-2.39,1.668,1.668,0,0,0-.3-1.252,1.342,1.342,0,0,0-1.173-.4A2.956,2.956,0,0,0,131.98,109l-1.141,4.439a6.229,6.229,0,0,0-.206,1.117q-.124,1.438,1.588,1.347a2.832,2.832,0,0,0,2.675-2.461l3.9-.206-.163.637Q137.325,118.99,131.32,119.307Z"/><path class="a" d="M147.434,118.152l.428-3.427-3.621.192-1.36,3.476-4.141.219,6.938-15.978,7.155-.378-1.279,15.679Zm.145-11.824-2.195,5.623,2.841-.15.72-5.545Z"/><path class="a" d="M164.02,101.665q2.472-.13,3.418.9a2.588,2.588,0,0,1,.6,2.05,5.433,5.433,0,0,1-.166.919l-.452,1.716a6.4,6.4,0,0,1-1.1,2.334,4.689,4.689,0,0,1-1.528,1.317l1.419,6.256-4.38.231-1.31-5.763-1.345.071-1.4,5.907-4.163.22L157.732,102Zm-1.662,3.47-1.626.086-.894,3.82,1.518-.081a2.175,2.175,0,0,0,2.323-2.139Q163.832,105.057,162.358,105.135Z"/><path class="a" d="M178.72,116.5l-10.884.575,4.119-15.828,10.885-.576-.9,3.43-6.981.369-.755,2.967,5.768-.305-.9,3.43-5.768.305-.656,2.571,6.982-.369Z"/><path class="b" d="M196.737,99.936l-1.4,11.89.5-.027,4.807-12.07,4.249-.224-6.721,15.966-6.5.343,1.46-10.072-3.78,10.195-6.5.344,1.517-15.691,4.249-.225-1.423,11.892.5-.027,4.828-12.071Z"/><path class="b" d="M210.224,114.833l.428-3.426-3.621.191-1.361,3.476-4.141.219,6.938-15.977,7.155-.379-1.279,15.679Zm.144-11.824-2.194,5.623,2.84-.15.72-5.545Z"/><path class="b" d="M220.781,109.831q-.131,1.5,2.027,1.388t2.275-1.464a1.148,1.148,0,0,0-.635-1.137,6.177,6.177,0,0,0-1.723-.668q-1.024-.249-2.041-.6a3.6,3.6,0,0,1-1.679-1.169,2.838,2.838,0,0,1-.55-2.106q.477-5.468,7.479-5.838A5.883,5.883,0,0,1,229.72,99a2.727,2.727,0,0,1,1.077,2.621,4.758,4.758,0,0,1-.267,1.217,3.2,3.2,0,0,1-.408.835l-.2.27-3.838.2a2.027,2.027,0,0,0,.588-1.288q.123-1.416-1.72-1.319-2.32.123-2.449,1.6a1.118,1.118,0,0,0,.635,1.137,5.6,5.6,0,0,0,1.729.592,19.646,19.646,0,0,1,2.06.509,3.4,3.4,0,0,1,1.692,1.136,2.964,2.964,0,0,1,.543,2.193,5.76,5.76,0,0,1-2.006,4.193,8.885,8.885,0,0,1-5.19,1.608q-3.426.182-4.577-.972a2.99,2.99,0,0,1-.712-2.478,7.919,7.919,0,0,1,.246-1.335l.1-.352,3.9-.207-.066.264A2.108,2.108,0,0,0,220.781,109.831Z"/><path class="b" d="M246.453,97.308l-4.1,15.827-3.925.207,1.491-5.716-4.228.224-1.469,5.715-3.924.207,4.119-15.828,3.9-.207-1.748,6.684,4.228-.224,1.748-6.683Z"/><circle class="a" cx="0.767" cy="0.767" r="0.767" transform="translate(224.644 80.431)"/><circle class="a" cx="1.418" cy="1.418" r="1.418" transform="translate(140.704 85.004)"/><circle class="a" cx="2.4" cy="2.4" r="2.4" transform="translate(136.898 86.422)"/><circle class="a" cx="1.068" cy="1.068" r="1.068" transform="translate(134.355 94.59)"/><circle class="a" cx="0.683" cy="0.683" r="0.683" transform="translate(135.691 94.182)"/><circle class="a" cx="0.982" cy="0.982" r="0.982" transform="translate(140.158 86.667)"/><circle class="a" cx="0.982" cy="0.982" r="0.982" transform="translate(140.158 87.84)"/><circle class="a" cx="0.838" cy="0.838" r="0.838" transform="translate(137.479 78.359)"/><circle class="a" cx="0.982" cy="0.982" r="0.982" transform="translate(138.316 89.471)"/><circle class="a" cx="0.646" cy="0.646" r="0.646" transform="translate(213.47 79.785)"/><circle class="a" cx="0.612" cy="0.612" r="0.612" transform="translate(160.462 75.023)"/><circle class="a" cx="0.612" cy="0.612" r="0.612" transform="translate(153.802 76.311)"/><circle class="a" cx="0.549" cy="0.549" r="0.549" transform="translate(231.574 82.41)"/><path class="a" d="M228.252,85.389a50.523,50.523,0,0,1,7.988,1.5,45.47,45.47,0,0,0-7.62-1.834A1.681,1.681,0,0,1,228.252,85.389Z"/><path class="a" d="M229,83.993a1.676,1.676,0,0,0-3.276-.5,1.535,1.535,0,0,0-1.188-.256,2.794,2.794,0,0,0-2.357-2.018,2.426,2.426,0,0,0,.038-.411,2.4,2.4,0,1,0-4.8,0,2.364,2.364,0,0,0,.074.58,2.4,2.4,0,0,0-.76,1.223c-.024,0-.048,0-.072,0a1.673,1.673,0,0,0-1.644,1.368,96.513,96.513,0,0,1,13.6,1.082A1.669,1.669,0,0,0,229,83.993Z"/><path class="a" d="M214.346,84.008a2.353,2.353,0,0,0-2.249.783,115.281,115.281,0,0,1,16.155.6,1.681,1.681,0,0,0,.368-.331,96.513,96.513,0,0,0-13.6-1.082,1.577,1.577,0,0,0-.026.195A3.062,3.062,0,0,0,214.346,84.008Z"/><path class="c" d="M154.1,81.376l.026-.01-.01-.017Z"/><path class="a" d="M154.121,81.349l.01.017a19.612,19.612,0,0,1,4.492-1.076c0-.03.005-.06.005-.09a2.4,2.4,0,0,0-4.507-1.149,2.4,2.4,0,0,1,0,2.3Z"/><path class="a" d="M143.849,85.248a2.4,2.4,0,0,0-1.947,3.8,47.555,47.555,0,0,1,3.727-3A2.393,2.393,0,0,0,143.849,85.248Z"/><path class="a" d="M150.891,82.934a1.911,1.911,0,0,1,0-1.829,1.91,1.91,0,1,0-2.155,2.762,21.789,21.789,0,0,1,2.142-.912Z"/><path class="a" d="M154.121,81.349a2.4,2.4,0,0,0,0-2.3,2.4,2.4,0,0,0,0,2.3Z"/><path class="a" d="M154.1,81.376a27.359,27.359,0,0,0-2.692,1.146,2.433,2.433,0,0,0,.6.078A2.4,2.4,0,0,0,154.1,81.376Z"/><path class="a" d="M134.913,98.934a27.208,27.208,0,0,1,1.942-4.429A27.071,27.071,0,0,1,143,86.993a28.894,28.894,0,0,1,3.961-2.86Q148,83.5,149.09,82.941c.725-.372,1.468-.706,2.216-1.024a36.069,36.069,0,0,1,4.6-1.6,38.511,38.511,0,0,1,4.759-1,32.7,32.7,0,0,1,4.85-.376H165.5l3.088-.13q1.545-.06,3.091-.1-1.533.2-3.069.383l-3.071.35h-.018a43.53,43.53,0,0,0-9.357,1.755,39.338,39.338,0,0,0-8.7,3.768c-.682.4-1.343.836-1.993,1.286s-1.287.92-1.9,1.421-1.207,1.023-1.783,1.566-1.13,1.11-1.658,1.7-1.037,1.2-1.522,1.831-.935,1.287-1.377,1.951A35.912,35.912,0,0,0,134.913,98.934Z"/><path class="a" d="M144.826,78.943a3.677,3.677,0,1,0,3.677,3.678A3.678,3.678,0,0,0,144.826,78.943Zm-3.128,5.04s-1.245-4.106,2.99-4.786A5.35,5.35,0,0,0,141.7,83.983Z"/><path class="a" d="M152.824,80.946a1.7,1.7,0,1,0-1.61,1.793A1.7,1.7,0,0,0,152.824,80.946Zm-2.409-1.323a1.663,1.663,0,0,1,2.288,1.266A2.479,2.479,0,0,0,150.415,79.623Z"/><path class="c" d="M209.178,84.245c-2.734-1.619-11.825-3.844-15.776-4.763a25.252,25.252,0,0,0-4.047-.6,87.168,87.168,0,0,0-20.069,1.1c1.257.237,10.371,7.217,10.371,7.217C192.985,83.93,209.178,84.245,209.178,84.245Z"/><path class="c" d="M150.143,85.784s-5.139,2.573-7.422,6.075l11.564-.981S152.52,87.077,150.143,85.784Z"/><path class="c" d="M156.315,90.706l18.625-2.4c-8.875-13.044-23.534-3.236-23.534-3.236C153,86,156.315,90.706,156.315,90.706Z"/><path class="c" d="M240.929,89.375c-.278.164.158,1.417.972,2.8s1.7,2.369,1.979,2.2-.157-1.417-.972-2.8S241.207,89.211,240.929,89.375Z"/><path class="c" d="M240,89.527a1.813,1.813,0,0,0-1.385-1.053l-5.6-.84-7.5,1.211a.806.806,0,0,0-.541,1.244l3.013,4.488a2.476,2.476,0,0,0,2.154,1.094l10.946-.437a.974.974,0,0,0,.85-1.371Z"/><path class="c" d="M143.448,94.64l3.717,4.74,31.157-1.449-30.647.513Z"/><path class="c" d="M156.315,90.706l18.625-2.4c-8.875-13.044-23.534-3.236-23.534-3.236C153,86,156.315,90.706,156.315,90.706Z"/><path class="c" d="M150.143,85.784s-5.139,2.573-7.422,6.075l11.564-.981S152.52,87.077,150.143,85.784Z"/><path class="c" d="M209.178,84.245c-2.734-1.619-11.825-3.844-15.776-4.763a25.252,25.252,0,0,0-4.047-.6,87.168,87.168,0,0,0-20.069,1.1c1.257.237,10.371,7.217,10.371,7.217C192.985,83.93,209.178,84.245,209.178,84.245Z"/><path class="c" d="M240.929,89.375c-.278.164.158,1.417.972,2.8s1.7,2.369,1.979,2.2-.157-1.417-.972-2.8S241.207,89.211,240.929,89.375Z"/><path class="c" d="M240,89.527a1.813,1.813,0,0,0-1.385-1.053l-5.6-.84-7.5,1.211a.806.806,0,0,0-.541,1.244l3.013,4.488a2.476,2.476,0,0,0,2.154,1.094l10.946-.437a.974.974,0,0,0,.85-1.371Z"/><path class="c" d="M151.406,85.065c1.592.936,4.909,5.641,4.909,5.641l18.625-2.4C166.065,75.257,151.406,85.065,151.406,85.065Z"/><path class="c" d="M150.143,85.784s-5.139,2.573-7.422,6.075l11.564-.981S152.52,87.077,150.143,85.784Z"/><path class="c" d="M209.178,84.245c-2.734-1.619-11.825-3.844-15.776-4.763a25.252,25.252,0,0,0-4.047-.6,87.168,87.168,0,0,0-20.069,1.1c1.257.237,10.371,7.217,10.371,7.217C192.985,83.93,209.178,84.245,209.178,84.245Z"/><path class="c" d="M219.437,90.034c.417.216.827.447,1.226.69A5.208,5.208,0,0,0,219.437,90.034Z"/><path class="c" d="M240.929,89.375c-.278.164.158,1.417.972,2.8s1.7,2.369,1.979,2.2-.157-1.417-.972-2.8S241.207,89.211,240.929,89.375Z"/><path class="c" d="M240,89.527a1.813,1.813,0,0,0-1.385-1.053l-5.6-.84-7.5,1.211a.806.806,0,0,0-.541,1.244l3.013,4.488a2.476,2.476,0,0,0,2.154,1.094l10.946-.437a.974.974,0,0,0,.85-1.371Z"/><path class="c" d="M240,89.527a1.813,1.813,0,0,0-1.385-1.053l-5.6-.84-7.5,1.211a.806.806,0,0,0-.541,1.244l3.013,4.488a2.476,2.476,0,0,0,2.154,1.094l10.946-.437a.974.974,0,0,0,.85-1.371Z"/><path class="c" d="M209.178,84.245c-2.734-1.619-11.825-3.844-15.776-4.763a25.252,25.252,0,0,0-4.047-.6,87.168,87.168,0,0,0-20.069,1.1c1.257.237,10.371,7.217,10.371,7.217C192.985,83.93,209.178,84.245,209.178,84.245Z"/><path class="c" d="M150.143,85.784s-5.139,2.573-7.422,6.075l11.564-.981S152.52,87.077,150.143,85.784Z"/><path class="c" d="M151.406,85.065c1.592.936,4.909,5.641,4.909,5.641l18.625-2.4C166.065,75.257,151.406,85.065,151.406,85.065Z"/><path class="a" d="M241.273,89.2c-.283.155.114,1.421.887,2.827s1.628,2.42,1.91,2.264-.114-1.421-.886-2.827S241.556,89.04,241.273,89.2Z"/><path class="a" d="M238.348,87.73c-5.641-1.634-12.092-.275-14.575.375a.806.806,0,0,0-.479,1.208l3.782,6.04A24.592,24.592,0,0,0,216.307,88.3c-6.758-1.9-29.8-1.32-29.8-1.32A236.331,236.331,0,0,1,212.1,84.791a2.353,2.353,0,0,1,2.249-.783,3.062,3.062,0,0,1,.645.163,1.577,1.577,0,0,1,.026-.195c-2.022-.025-3.283.017-3.283.017a68.426,68.426,0,0,0-15.3-4.8C136.9,72,135.176,98.785,135.176,98.785l5.343-1.774c.274-.987-1.1-.286,1.464-3.673l17.027-1.027s21.951-2.873,30.737-3.489,20.5-1.523,26.54-.013a14.629,14.629,0,0,1,3.15,1.225,5.208,5.208,0,0,1,1.226.69,32.015,32.015,0,0,1,6.894,5.918l14.495-.829a.652.652,0,0,0,.61-.757C242.217,92.455,240.441,88.121,238.348,87.73Zm-95.627,4.129c2.283-3.5,7.422-6.075,7.422-6.075,2.377,1.293,4.142,5.094,4.142,5.094Zm13.594-1.153S153,86,151.406,85.065c0,0,14.659-9.808,23.534,3.236Zm12.971-10.721a87.168,87.168,0,0,1,20.069-1.1,25.252,25.252,0,0,1,4.047.6c3.951.919,13.042,3.144,15.776,4.763,0,0-16.193-.315-29.521,2.957C179.657,87.2,170.543,80.222,169.286,79.985Zm71.8,15.249-10.946.437a2.476,2.476,0,0,1-2.154-1.094l-3.013-4.488a.806.806,0,0,1,.541-1.244l6.582-1.062a5.983,5.983,0,0,1,1.846-.011l4.673.7A1.813,1.813,0,0,1,240,89.527l1.936,4.336A.974.974,0,0,1,241.086,95.234Zm.815-3.06"/><path class="a" d="M161.746,96.438a56.775,56.775,0,0,0-8.716-.8,43.953,43.953,0,0,0-8.61.679,32.942,32.942,0,0,0-4.175,1.026,30.31,30.31,0,0,0-4.011,1.554c-.663.285-1.283.649-1.93.973l-.933.551c-.156.092-.316.179-.468.276l-.453.3c-.3.2-.613.391-.912.6s-.583.436-.883.647c-.147.108-.3.211-.444.324l-.425.347c-.289.227-.574.46-.869.685.232-.286.473-.565.711-.85l.364-.421c.124-.138.258-.265.387-.4.258-.266.525-.525.79-.787s.558-.492.838-.739l.426-.364c.144-.119.3-.227.445-.341l.9-.67.943-.611c.159-.1.313-.207.476-.3l.491-.275a24.827,24.827,0,0,1,4.1-1.858c.356-.121.71-.251,1.071-.356l1.084-.311c.363-.1.732-.172,1.1-.26s.735-.158,1.1-.224a33.058,33.058,0,0,1,8.944-.376,35.1,35.1,0,0,1,4.407.681A26.328,26.328,0,0,1,161.746,96.438Z"/><path class="a" d="M136.425,97.35l.011-.143.012-.107.027-.2c.02-.129.042-.254.067-.376.049-.244.106-.481.17-.714a12.766,12.766,0,0,1,.458-1.351,15.527,15.527,0,0,1,1.275-2.478,19.576,19.576,0,0,1,3.545-4.117,30.85,30.85,0,0,1,9.064-5.378,54.7,54.7,0,0,1,9.976-2.817c1.691-.325,3.393-.572,5.085-.8s3.4-.413,5.1-.574a99.12,99.12,0,0,1,20.471.138,66.256,66.256,0,0,1,10.045,1.939,44.767,44.767,0,0,1,4.843,1.639,23.577,23.577,0,0,1,4.52,2.36,23.443,23.443,0,0,0-4.58-2.206,44.633,44.633,0,0,0-4.867-1.474,65.82,65.82,0,0,0-10.029-1.6,98.184,98.184,0,0,0-20.263.518c-1.678.213-3.352.451-5.02.73s-3.326.58-4.964.956a52.819,52.819,0,0,0-9.531,3.063,28.65,28.65,0,0,0-8.224,5.27,17.114,17.114,0,0,0-2.964,3.7,12.913,12.913,0,0,0-.982,2.089,10.141,10.141,0,0,0-.322,1.076c-.042.179-.078.357-.106.531-.014.087-.026.172-.035.254l-.012.117,0,.051c0,.01,0,.041,0,.017Z"/><path class="a" d="M181.426,78.818s12.027,0,21.171,3.118l.006-.771S186.548,76.445,181.426,78.818Z"/></g></svg>