<svg xmlns="http://www.w3.org/2000/svg" width="137.634" height="137.634" viewBox="0 0 137.634 137.634"><defs><style>.a{fill:#0080ad;}</style></defs><g transform="translate(-424.56 -823.259)"><path class="a" d="M562.194,892.076a7.4,7.4,0,0,0-2.558-5.6,12.112,12.112,0,0,1-2.9-14.582,7.408,7.408,0,0,0-4.286-10.348,12.1,12.1,0,0,1-8.258-12.362,7.348,7.348,0,0,0-1.965-5.578,7.2,7.2,0,0,0-5.961-2.342A12.135,12.135,0,0,1,523.908,833a7.407,7.407,0,0,0-7.039-5.075,7.324,7.324,0,0,0-3.311.789,12.417,12.417,0,0,1-14.579-2.9,7.411,7.411,0,0,0-11.2,0,12.112,12.112,0,0,1-14.579,2.9,7.309,7.309,0,0,0-3.311-.79,7.4,7.4,0,0,0-7.039,5.076,12.087,12.087,0,0,1-11.487,8.29c-.286,0-.577-.01-.88-.032a7.2,7.2,0,0,0-5.947,2.345,7.318,7.318,0,0,0-1.968,5.574,12.1,12.1,0,0,1-8.258,12.364,7.4,7.4,0,0,0-4.286,10.349,12.106,12.106,0,0,1-2.9,14.58,7.405,7.405,0,0,0,0,11.2,12.109,12.109,0,0,1,2.9,14.582,7.3,7.3,0,0,0-.222,6.153,7.39,7.39,0,0,0,4.507,4.194,12.1,12.1,0,0,1,8.259,12.36,7.412,7.412,0,0,0,7.921,7.925,12.113,12.113,0,0,1,12.361,8.257,7.408,7.408,0,0,0,7.039,5.076,7.319,7.319,0,0,0,3.311-.789,11.867,11.867,0,0,1,5.288-1.222,12.4,12.4,0,0,1,9.293,4.123,7.412,7.412,0,0,0,11.2,0,12.1,12.1,0,0,1,14.576-2.9,7.308,7.308,0,0,0,3.311.79,7.415,7.415,0,0,0,7.042-5.078,12.087,12.087,0,0,1,12.363-8.255,7.412,7.412,0,0,0,7.918-7.923A12.1,12.1,0,0,1,552.45,922.6a7.4,7.4,0,0,0,4.286-10.346,12.112,12.112,0,0,1,2.9-14.582A7.308,7.308,0,0,0,562.194,892.076Zm-4.449,3.414a15,15,0,0,0-3.592,18.064,4.517,4.517,0,0,1-2.615,6.31,15,15,0,0,0-10.232,15.311,4.395,4.395,0,0,1-1.2,3.4,4.289,4.289,0,0,1-3.61,1.432,15.013,15.013,0,0,0-15.331,10.227,4.557,4.557,0,0,1-6.315,2.615,15,15,0,0,0-18.058,3.594,4.557,4.557,0,0,1-6.835,0,15,15,0,0,0-18.059-3.589,4.557,4.557,0,0,1-6.31-2.618,14.979,14.979,0,0,0-14.231-10.265c-.37,0-.738.013-1.331.048h0a4.488,4.488,0,0,1-3.382-1.443,4.408,4.408,0,0,1-1.194-3.4,15,15,0,0,0-10.235-15.312,4.515,4.515,0,0,1-2.614-6.306,14.991,14.991,0,0,0-3.591-18.064,4.408,4.408,0,0,1-1.56-3.416,4.46,4.46,0,0,1,1.559-3.415,14.991,14.991,0,0,0,3.6-18.06,4.461,4.461,0,0,1-.136-3.754,4.39,4.39,0,0,1,2.75-2.559,15,15,0,0,0,10.232-15.314,4.514,4.514,0,0,1,4.491-4.84l.274.008a14.971,14.971,0,0,0,15.375-10.227A4.551,4.551,0,0,1,471.9,831.3a15.006,15.006,0,0,0,18.063-3.592,4.553,4.553,0,0,1,6.831,0,15,15,0,0,0,18.06,3.588,4.558,4.558,0,0,1,6.312,2.618A14.981,14.981,0,0,0,535.4,844.185c.369,0,.742-.013,1.327-.048h0a4.494,4.494,0,0,1,3.382,1.439,4.4,4.4,0,0,1,1.2,3.4,15,15,0,0,0,10.232,15.311,4.46,4.46,0,0,1,2.748,2.557,4.407,4.407,0,0,1-.135,3.754,15,15,0,0,0,3.594,18.063,4.507,4.507,0,0,1,1.559,3.414A4.4,4.4,0,0,1,557.745,895.49Z"/><path class="a" d="M472.005,891.365H457.29V880.693h15.554v-2.661H454.416v26.644h2.874v-10.86h14.715Z"/><path class="a" d="M499.687,899.142l2.476,5.535h3.119L493.309,877.99h-4.314l-11.973,26.687h3.084l2.517-5.535Zm-8.535-19.65,7.484,17.156H483.667Z"/><path class="a" d="M532.866,900.73l.918-1.485a15.552,15.552,0,0,0,2.155-8.274c-.114-6.816-4.4-13.694-13.724-13.694A13.5,13.5,0,0,0,512.362,881a14.463,14.463,0,0,0-3.911,10.285c.039,6.917,4.31,13.9,13.764,13.9a14.281,14.281,0,0,0,7.133-1.672l1.443-.822,3.329,3.289,2.015-2.016Zm-2.906-1.162h0a10.449,10.449,0,0,1-7.745,3.159c-7.405,0-10.88-5.852-10.974-11.288a12.27,12.27,0,0,1,3.247-8.82,10.405,10.405,0,0,1,7.727-3.017c7.691,0,10.691,5.747,10.935,11.125A12.22,12.22,0,0,1,529.96,899.568Z"/></g></svg>